<svg width="112" height="33" viewBox="0 0 112 33" fill="none" xmlns="http://www.w3.org/2000/svg">
<path d="M45.044 24L50.28 10.074C50.5147 9.47267 50.8373 9.03267 51.248 8.754C51.6587 8.47533 52.1353 8.336 52.678 8.336C53.2207 8.336 53.6973 8.47533 54.108 8.754C54.5333 9.018 54.856 9.45067 55.076 10.052L60.334 24H58.024L56.682 20.282H48.63L47.266 24H45.044ZM49.29 18.412H56.044L53.294 10.778C53.2207 10.5873 53.14 10.4407 53.052 10.338C52.964 10.2353 52.8393 10.184 52.678 10.184C52.5313 10.184 52.414 10.2353 52.326 10.338C52.238 10.4407 52.1647 10.5873 52.106 10.778L49.29 18.412ZM66.1468 24.264C65.1348 24.264 64.2255 24.0587 63.4188 23.648C62.6268 23.2227 62.0035 22.636 61.5488 21.888C61.1088 21.14 60.8888 20.2673 60.8888 19.27V12.78H62.9348V19.248C62.9348 19.9227 63.0815 20.5093 63.3748 21.008C63.6681 21.492 64.0568 21.866 64.5408 22.13C65.0395 22.394 65.5675 22.526 66.1248 22.526C66.6968 22.526 67.2248 22.394 67.7088 22.13C68.2075 21.866 68.6035 21.492 68.8968 21.008C69.2048 20.5093 69.3588 19.9227 69.3588 19.248V12.78H71.4048V19.27C71.4048 20.2673 71.1775 21.14 70.7228 21.888C70.2681 22.636 69.6448 23.2227 68.8528 23.648C68.0608 24.0587 67.1588 24.264 66.1468 24.264ZM73.4513 24V15.97C73.4513 14.9727 73.73 14.1953 74.2873 13.638C74.8593 13.066 75.644 12.78 76.6413 12.78H78.9513V14.518H77.0153C76.5313 14.518 76.15 14.6573 75.8713 14.936C75.6073 15.2147 75.4753 15.6033 75.4753 16.102V24H73.4513ZM85.002 24.264C83.858 24.264 82.846 24.0073 81.966 23.494C81.086 22.966 80.3893 22.262 79.876 21.382C79.3627 20.4873 79.106 19.49 79.106 18.39C79.106 17.29 79.3627 16.3 79.876 15.42C80.3893 14.5253 81.086 13.8213 81.966 13.308C82.846 12.78 83.858 12.516 85.002 12.516C86.146 12.516 87.158 12.78 88.038 13.308C88.9327 13.8213 89.6294 14.518 90.128 15.398C90.6414 16.278 90.898 17.2753 90.898 18.39C90.898 19.49 90.6414 20.4873 90.128 21.382C89.6294 22.262 88.9327 22.966 88.038 23.494C87.158 24.0073 86.146 24.264 85.002 24.264ZM85.002 22.526C85.7794 22.526 86.454 22.3427 87.026 21.976C87.598 21.6093 88.0454 21.118 88.368 20.502C88.6907 19.8713 88.852 19.1673 88.852 18.39C88.852 17.6127 88.6907 16.916 88.368 16.3C88.0454 15.6693 87.598 15.1707 87.026 14.804C86.454 14.4373 85.7794 14.254 85.002 14.254C84.2394 14.254 83.5647 14.4373 82.978 14.804C82.406 15.1707 81.9587 15.6693 81.636 16.3C81.3133 16.916 81.152 17.6127 81.152 18.39C81.152 19.1673 81.3133 19.8713 81.636 20.502C81.9587 21.118 82.406 21.6093 82.978 21.976C83.5647 22.3427 84.2394 22.526 85.002 22.526ZM92.3275 24V15.97C92.3275 14.9727 92.6062 14.1953 93.1635 13.638C93.7355 13.066 94.5202 12.78 95.5175 12.78H97.8275V14.518H95.8915C95.4075 14.518 95.0262 14.6573 94.7475 14.936C94.4835 15.2147 94.3515 15.6033 94.3515 16.102V24H92.3275ZM103.262 24.264C102.177 24.264 101.238 24.0073 100.446 23.494C99.6542 22.966 99.0455 22.2547 98.6202 21.36C98.1949 20.4653 97.9822 19.4753 97.9822 18.39C97.9822 17.29 98.2169 16.3 98.6862 15.42C99.1555 14.5253 99.8302 13.8213 100.71 13.308C101.59 12.78 102.646 12.516 103.878 12.516C105.066 12.516 106.086 12.7727 106.936 13.286C107.787 13.7993 108.44 14.496 108.894 15.376C109.364 16.256 109.598 17.2387 109.598 18.324V24H107.552V21.712H107.508C107.288 22.1373 106.988 22.548 106.606 22.944C106.24 23.3253 105.778 23.6407 105.22 23.89C104.663 24.1393 104.01 24.264 103.262 24.264ZM103.79 22.526C104.524 22.526 105.169 22.35 105.726 21.998C106.298 21.6313 106.738 21.1327 107.046 20.502C107.369 19.8567 107.53 19.138 107.53 18.346C107.53 17.5687 107.376 16.872 107.068 16.256C106.775 15.64 106.35 15.156 105.792 14.804C105.235 14.4373 104.582 14.254 103.834 14.254C103.042 14.254 102.36 14.4373 101.788 14.804C101.231 15.1707 100.798 15.6693 100.49 16.3C100.197 16.916 100.05 17.62 100.05 18.412C100.05 19.1747 100.197 19.8713 100.49 20.502C100.784 21.118 101.209 21.6093 101.766 21.976C102.324 22.3427 102.998 22.526 103.79 22.526Z" fill="#0F1011"/>
<path d="M10.417 7.53918L5.18964 10.4953C4.38937 10.9479 3.89382 11.7954 3.89191 12.7147L3.8581 28.9595C3.85473 30.5781 5.59924 31.5981 7.00815 30.8013L10.3726 28.8988C13.7416 26.9935 17.8873 27.1044 21.1497 29.187C24.4638 31.3025 28.6843 31.3809 32.0747 29.39L36.8989 26.5571C37.6463 26.1181 38.1061 25.3169 38.1079 24.4501L38.1421 8.01721C38.1453 6.45782 36.4519 5.48608 35.1072 6.27573L32.1192 8.0304C28.7288 10.0214 24.5083 9.94293 21.1942 7.82739C17.9318 5.74484 13.7861 5.63397 10.417 7.53918Z" fill="#43F5D5"/>
<path d="M6.56644 4.97278L1.33905 7.92889C0.538784 8.38145 0.043239 9.22895 0.0413255 10.1483L0.00751485 26.3931C0.00414604 28.0116 1.74865 29.0317 3.15757 28.2349L6.52198 26.3323C9.89102 24.4271 14.0367 24.538 17.2991 26.6205C20.6132 28.7361 24.8337 28.8145 28.2241 26.8236L33.0483 23.9906C33.7957 23.5517 34.2555 22.7505 34.2573 21.8837L34.2915 5.4508C34.2947 3.89141 32.6013 2.91968 31.2566 3.70932L28.2686 5.464C24.8782 7.45495 20.6577 7.37652 17.3436 5.26098C14.0812 3.17843 9.93549 3.06757 6.56644 4.97278Z" fill="#776BFF"/>
</svg>
