<svg width="35" height="31" viewBox="0 0 35 31" fill="none" xmlns="http://www.w3.org/2000/svg">
<path d="M4.19466 3.65511H9.19466L12.528 0.321777H22.528L25.8613 3.65511H30.8613C31.7454 3.65511 32.5932 4.0063 33.2183 4.63142C33.8435 5.25654 34.1947 6.10439 34.1947 6.98844V26.9884C34.1947 27.8725 33.8435 28.7203 33.2183 29.3455C32.5932 29.9706 31.7454 30.3218 30.8613 30.3218H4.19466C3.31061 30.3218 2.46276 29.9706 1.83764 29.3455C1.21252 28.7203 0.861328 27.8725 0.861328 26.9884V6.98844C0.861328 6.10439 1.21252 5.25654 1.83764 4.63142C2.46276 4.0063 3.31061 3.65511 4.19466 3.65511ZM17.528 8.65511C15.3179 8.65511 13.1982 9.53308 11.6354 11.0959C10.0726 12.6587 9.19466 14.7783 9.19466 16.9884C9.19466 19.1986 10.0726 21.3182 11.6354 22.881C13.1982 24.4438 15.3179 25.3218 17.528 25.3218C19.7381 25.3218 21.8577 24.4438 23.4205 22.881C24.9834 21.3182 25.8613 19.1986 25.8613 16.9884C25.8613 14.7783 24.9834 12.6587 23.4205 11.0959C21.8577 9.53308 19.7381 8.65511 17.528 8.65511ZM17.528 11.9884C18.8541 11.9884 20.1258 12.5152 21.0635 13.4529C22.0012 14.3906 22.528 15.6624 22.528 16.9884C22.528 18.3145 22.0012 19.5863 21.0635 20.524C20.1258 21.4617 18.8541 21.9884 17.528 21.9884C16.2019 21.9884 14.9301 21.4617 13.9925 20.524C13.0548 19.5863 12.528 18.3145 12.528 16.9884C12.528 15.6624 13.0548 14.3906 13.9925 13.4529C14.9301 12.5152 16.2019 11.9884 17.528 11.9884Z" fill="#94A3B8"/>
</svg>
