<svg width="36" height="36" viewBox="0 0 36 36" fill="none" xmlns="http://www.w3.org/2000/svg">
<rect x="0.5" y="0.5" width="35" height="35" rx="17.5" fill="#E1DCFF"/>
<path d="M16.75 24.875C16.75 25.5654 17.3096 26.125 18 26.125C18.6904 26.125 19.25 25.5654 19.25 24.875H16.75ZM18.8839 9.61612C18.3957 9.12796 17.6043 9.12796 17.1161 9.61612L9.16117 17.5711C8.67301 18.0592 8.67301 18.8507 9.16117 19.3388C9.64932 19.827 10.4408 19.827 10.9289 19.3388L18 12.2678L25.0711 19.3388C25.5592 19.827 26.3507 19.827 26.8388 19.3388C27.327 18.8507 27.327 18.0592 26.8388 17.5711L18.8839 9.61612ZM19.25 24.875V10.5H16.75V24.875H19.25Z" fill="#FEFEFE"/>
</svg>
