<svg width="35" height="36" viewBox="0 0 35 36" fill="none" xmlns="http://www.w3.org/2000/svg">
<rect y="0.5" width="35" height="35" rx="17.5" fill="#776BFF"/>
<path d="M16.25 24.875C16.25 25.5654 16.8096 26.125 17.5 26.125C18.1904 26.125 18.75 25.5654 18.75 24.875H16.25ZM18.3839 9.61612C17.8957 9.12796 17.1043 9.12796 16.6161 9.61612L8.66117 17.5711C8.17301 18.0592 8.17301 18.8507 8.66117 19.3388C9.14932 19.827 9.94078 19.827 10.4289 19.3388L17.5 12.2678L24.5711 19.3388C25.0592 19.827 25.8507 19.827 26.3388 19.3388C26.827 18.8507 26.827 18.0592 26.3388 17.5711L18.3839 9.61612ZM18.75 24.875V10.5H16.25V24.875H18.75Z" fill="#FEFEFE"/>
</svg>
