<svg width="25" height="32" viewBox="0 0 25 32" fill="none" xmlns="http://www.w3.org/2000/svg">
<path d="M8.76213 9.79263C11.6337 15.4413 9.23742 18.0954 7.68036 18.7164C6.39933 18.6096 4.98387 20.0368 4.46851 21.2358C3.84727 22.6811 3.91681 23.5628 4.60305 24.5758C6.4805 28.0387 8.78205 29.4029 11.0637 29.5829C17.5316 30.0932 22.6724 21.5665 19.2181 16.0745C16.8563 12.3194 12.0026 10.3923 8.76213 9.79263Z" fill="#FEFEFE"/>
<path d="M22.2199 14.0546C21.8257 13.5404 21.3458 13.0947 20.9001 12.6491C19.7518 11.6207 18.4492 10.8837 17.3522 9.80392C14.7984 7.30152 14.2328 3.17085 15.8611 0C14.2328 0.394214 12.8102 1.28548 11.5933 2.26244C7.15408 5.8275 5.40583 12.1178 7.49687 17.5168C7.56543 17.6882 7.63399 17.8596 7.63399 18.0824C7.63399 18.4595 7.3769 18.8023 7.0341 18.9394C6.63989 19.1108 6.22853 19.0079 5.90288 18.7337C5.8056 18.6522 5.72425 18.5534 5.66292 18.4423C3.72613 15.9914 3.41762 12.4777 4.72024 9.6668C1.85791 11.9978 0.298191 15.9399 0.521008 19.6593C0.623846 20.5162 0.726684 21.3732 1.01806 22.2302C1.25802 23.2586 1.72079 24.287 2.23498 25.1954C4.08607 28.1606 7.2912 30.2859 10.7363 30.7144C14.4042 31.1772 18.3292 30.5087 21.1401 27.972C24.2767 25.1268 25.3736 20.5677 23.7625 16.6598L23.5397 16.2142C23.1797 15.4257 22.2199 14.0546 22.2199 14.0546ZM16.8037 24.8526C16.3238 25.2639 15.5354 25.7096 14.9184 25.881C12.9987 26.5666 11.0791 25.6067 9.94785 24.4755C11.9875 23.9956 13.2044 22.4873 13.5643 20.9619C13.8557 19.5907 13.3072 18.4595 13.0844 17.1397C12.8787 15.8714 12.913 14.7916 13.3758 13.6089C13.7015 14.2602 14.0442 14.9116 14.4556 15.4257C15.7754 17.1397 17.8493 17.8939 18.2949 20.2249C18.3635 20.4648 18.3977 20.7048 18.3977 20.9619C18.4492 22.3673 17.8321 23.9099 16.8037 24.8526Z" fill="#776BFF"/>
</svg>
