<svg width="48" height="48" viewBox="0 0 48 48" fill="none" xmlns="http://www.w3.org/2000/svg">
<path d="M15.724 16.6265C15.6994 16.5713 15.702 16.5359 15.7079 16.5119C15.7152 16.4819 15.7346 16.4463 15.7688 16.4154C15.8031 16.3846 15.8405 16.3691 15.8712 16.3649C15.8956 16.3616 15.9312 16.3626 15.9835 16.3928L19.8805 18.6428C20.562 19.0363 21.4193 18.9462 22.0041 18.4196L25.3482 15.4086C25.3931 15.3682 25.4277 15.3597 25.4522 15.3579C25.4831 15.3556 25.5229 15.363 25.5629 15.386C25.6028 15.4091 25.6291 15.4399 25.6425 15.4678C25.6532 15.49 25.6632 15.5241 25.6506 15.5832L24.7151 19.9848C24.5515 20.7545 24.9021 21.542 25.5836 21.9355L29.4806 24.1854C29.5329 24.2156 29.5516 24.2459 29.561 24.2687C29.5727 24.2973 29.578 24.3375 29.5684 24.3826C29.5588 24.4277 29.5376 24.4622 29.5153 24.4836C29.4975 24.5007 29.4681 24.5207 29.408 24.527L24.9327 24.9974C24.1501 25.0796 23.5095 25.6565 23.3459 26.4262L22.4103 30.8278C22.3978 30.8869 22.3747 30.914 22.3559 30.9299C22.3323 30.9499 22.2958 30.9674 22.2499 30.9722C22.2041 30.977 22.1647 30.9675 22.1374 30.9529C22.1157 30.9412 22.0876 30.9195 22.063 30.8643L20.2327 26.7534C19.9127 26.0345 19.1661 25.6035 18.3835 25.6857L13.9082 26.1561C13.8482 26.1624 13.8152 26.1489 13.7943 26.136C13.768 26.1197 13.7401 26.0903 13.7213 26.0482C13.7026 26.0061 13.6994 25.9657 13.7049 25.9352C13.7093 25.911 13.7213 25.8775 13.7662 25.8371L17.1103 22.826C17.6951 22.2995 17.8743 21.4563 17.5542 20.7374L15.724 16.6265Z" fill="#776BFF" stroke="#776BFF" stroke-width="1.63281"/>
<path d="M28.498 29.7646L33.498 34.7646" stroke="#776BFF" stroke-width="2" stroke-linecap="round"/>
</svg>
