<svg width="32" height="32" viewBox="0 0 32 32" fill="none" xmlns="http://www.w3.org/2000/svg">
<path d="M10.9854 10.3061C10.7227 9.71607 11.3685 9.13463 11.9278 9.45754L14.5258 10.9575C14.7759 11.1019 15.0906 11.0688 15.3052 10.8756L17.5346 8.86824C18.0146 8.4361 18.7671 8.87057 18.6328 9.50227L18.0091 12.4367C17.949 12.7192 18.0777 13.0082 18.3278 13.1526L20.9259 14.6526C21.4852 14.9755 21.3045 15.8255 20.6622 15.893L17.6787 16.2065C17.3915 16.2367 17.1564 16.4484 17.0963 16.7309L16.4726 19.6653C16.3383 20.297 15.4741 20.3879 15.2115 19.7979L13.9913 17.0573C13.8738 16.7934 13.5998 16.6352 13.3126 16.6654L10.329 16.979C9.68677 17.0465 9.33334 16.2527 9.81327 15.8206L12.0427 13.8132C12.2573 13.62 12.3231 13.3105 12.2056 13.0466L10.9854 10.3061Z" fill="white"/>
<path d="M19.999 18.8433L23.3324 22.1766" stroke="white" stroke-width="1.33333" stroke-linecap="round"/>
</svg>
