<svg width="32" height="32" viewBox="0 0 32 32" fill="none" xmlns="http://www.w3.org/2000/svg">
<path d="M11.4826 10.0847C11.4663 10.0479 11.468 10.0242 11.4719 10.0083C11.4768 9.98824 11.4897 9.9645 11.5126 9.94393C11.5354 9.92337 11.5604 9.91303 11.5808 9.91026C11.5971 9.90805 11.6208 9.90876 11.6556 9.92889L14.2537 11.4289C14.708 11.6912 15.2796 11.6311 15.6694 11.2801L17.8988 9.27271C17.9287 9.24576 17.9518 9.24014 17.9682 9.23892C17.9887 9.23738 18.0153 9.2423 18.0419 9.25767C18.0685 9.27303 18.0861 9.29358 18.095 9.31216C18.1022 9.32696 18.1088 9.34972 18.1004 9.38911L17.4767 12.3235C17.3676 12.8366 17.6014 13.3617 18.0557 13.624L20.6537 15.1239C20.6886 15.1441 20.7011 15.1643 20.7073 15.1795C20.7151 15.1985 20.7187 15.2253 20.7123 15.2554C20.7059 15.2855 20.6918 15.3085 20.6769 15.3227C20.665 15.3341 20.6454 15.3475 20.6053 15.3517L17.6218 15.6652C17.1001 15.7201 16.673 16.1046 16.5639 16.6178L15.9402 19.5522C15.9318 19.5916 15.9165 19.6096 15.904 19.6203C15.8882 19.6336 15.8638 19.6452 15.8333 19.6484C15.8027 19.6517 15.7764 19.6454 15.7583 19.6356C15.7438 19.6278 15.725 19.6133 15.7087 19.5765L14.4885 16.8359C14.2751 16.3567 13.7774 16.0693 13.2557 16.1242L10.2722 16.4377C10.2321 16.4419 10.2102 16.4329 10.1962 16.4243C10.1786 16.4135 10.16 16.3939 10.1475 16.3658C10.135 16.3377 10.1329 16.3108 10.1366 16.2905C10.1395 16.2743 10.1475 16.252 10.1775 16.225L12.4068 14.2177C12.7967 13.8667 12.9162 13.3045 12.7028 12.8253L11.4826 10.0847Z" fill="#4E525C" stroke="#4E525C" stroke-width="1.08854"/>
<path d="M19.999 18.8433L23.3324 22.1766" stroke="#4E525C" stroke-width="1.33333" stroke-linecap="round"/>
</svg>
