<svg width="37" height="28" viewBox="0 0 37 28" fill="none" xmlns="http://www.w3.org/2000/svg">
<path opacity="0.4" fill-rule="evenodd" clip-rule="evenodd" d="M9.5 3.49121C4.25329 3.49121 0 7.74451 0 12.9912C0 17.7275 3.46602 21.6543 8 22.3735V27.4912L13.7143 22.4912H27.5C32.7467 22.4912 37 18.2379 37 12.9912C37 7.74451 32.7467 3.49121 27.5 3.49121H9.5Z" fill="#AEA0FF"/>
<path d="M14.0992 14.6299C13.4981 14.6222 12.9972 14.1367 13.0049 13.5356C12.9972 12.9345 13.4981 12.4414 14.0992 12.4414C14.6925 12.4414 15.1857 12.9345 15.1934 13.5356C15.1857 14.1367 14.6925 14.6222 14.0992 14.6299ZM18.2604 14.6299C17.6593 14.6222 17.1584 14.1367 17.1661 13.5356C17.1584 12.9345 17.6593 12.4414 18.2604 12.4414C18.8537 12.4414 19.3469 12.9345 19.3546 13.5356C19.3469 14.1367 18.8537 14.6222 18.2604 14.6299ZM22.4216 14.6299C21.8205 14.6222 21.3197 14.1367 21.3274 13.5356C21.3197 12.9345 21.8205 12.4414 22.4216 12.4414C23.015 12.4414 23.5081 12.9345 23.5159 13.5356C23.5081 14.1367 23.015 14.6222 22.4216 14.6299Z" fill="white"/>
</svg>
